<?xml version="1.0" encoding="UTF-8"?>
<svg id="Layer_1" xmlns="http://www.w3.org/2000/svg" version="1.1" viewBox="0 0 200 124">
  <!-- Generator: Adobe Illustrator 29.6.1, SVG Export Plug-In . SVG Version: 2.1.1 Build 9)  -->
  <defs>
    <style>
      .st0 {
        fill: #f8ea22;
      }

      .st1 {
        isolation: isolate;
      }
    </style>
  </defs>
  <g class="st1">
    <g class="st1">
      <path class="st0" d="M7.87,112.58c.28-.86.64-3.02.72-4.72.45-5.44,1.13-22.09,1.36-29.64.29-17.44,1.78-33.99,3.32-36.54.82-1.48,3.34-1.7,4.84-.39,1.62,1.38,2.23,4.29,2.19,11.41-.01,1.98,0,3.65.12,3.72,0,0-.09,2.88-.15,6.25-.16,3.39-.26,9.44-.38,13.42-.12,3.98-.19,9.33-.25,11.91.03,2.56.05,6.7.02,9.37.03,2.56.07,4.72.07,4.72.12.07,1.49-.76,3.22-1.77,11.06-6.84,26.4-13.55,31.66-13.84,1.28-.02,2.12.17,3.32.67,1.44.64,1.69.87,2.17,2.04.55,1.05.55,1.45.31,2.09-.42,1.09-1.94,2.55-3.44,3.31-.7.37-2.4,1.47-3.92,2.54s-5.39,3.78-8.69,6.07c-16.13,11.14-17.49,12.06-21.41,15.39-2.97,2.4-3.71,2.98-5.37,3.48-1.65.5-2.05.5-3.7.21-2.72-.62-4.27-1.72-5.51-3.99-1.08-2.01-1.24-3.45-.5-5.7h0Z"/>
      <path class="st0" d="M48.15,103.74c-2.03,1.38-3.2,1.47-4.28.25-1.78-2.03-.08-5.6,4.92-10.58l2.24-2.13.58-3.69c.38-2.07,1.23-7.51,1.88-12.11,1.67-11.76,2.73-17.54,4.16-23.42,2.19-9.22,5.47-16.83,8.3-19.39,3.48-3.12,7.54-1.84,9.68,2.87,1.61,3.75,2.21,12.69,2.18,33.22,0,3.65-.01,6.81.03,7-.05.6.07.67,1.44.64,1.16-.09,2.14.66,2.43,1.88.32,1.3-.48,2.88-2.35,4.52-.82.69-1.43,1.43-1.5,1.55s-.1,2-.19,4.09c-.19,8.14-.77,12.23-2.12,13.55-1.52,1.46-3.63,1.28-4.81-.31-.83-.98-1.82-6.27-1.74-9.15-.02-1.28-.06-2.26-.15-2.23-.09.02-2.33,1.36-4.9,2.97-2.82,1.77-4.67,3.11-4.79,3.44-.05.21-.32,3.14-.69,6.48-.77,7.79-.98,8.92-1.73,10.29-.87,1.3-2.57,2.01-3.85,1.63-2.11-.57-2.64-1.92-2.8-6.23-.12-3.72-.31-6.14-.5-6.1-.09.02-.68.46-1.45.95h0ZM61.45,75.72c-.9,6.83-.98,8.92-.65,8.65.16-.14,1.91-1.06,3.73-2.09,4.71-2.53,4.48-2.28,4.51-4.56-.08-1.95-.07-4.72.16-15.93.14-7.53.08-14.23-.2-17.81-.11-1.65-.14-3.42-.14-3.82-.06-1.07-.53-.56-1.66,2.08-2.54,5.36-2.95,7.33-4.77,24.55-.34,2.65-.74,6.69-.98,8.93h0Z"/>
      <path class="st0" d="M115.17,55.6c-.19.84-.94,5.07-1.59,9.27-6.04,34.73-8.4,46.07-10.3,48.8-.87,1.3-1.92,1.85-3.13,1.75-2.53-.27-3.25-1.97-2.62-5.88.24-1.44.44-3.07.56-3.79.13-1.91.7-8.46,1.3-15.32.23-3.51.79-8.88,1.02-11.99,1.09-11.32,1.29-13.34,1.26-13.44,0,0-1.1.76-2.43,1.78-2.1,1.5-2.8,1.87-5.01,2.51-4.03,1.28-7.1.84-10.34-1.52-3.89-3-6.16-8.27-6.33-15.04-.09-4.42,1.59-13.32,3.38-17.7,1.65-4.15,6.29-4.99,8.2-1.6.23.54.46,1.86.56,3.51.06,1.47.21,3.3.3,4.07.32,1.7-.27,2.93-1.01,2.32-.51-.47-.7-.03-1.01,2.32-.7,5.21-.08,10.58,1.42,12.68.69.82.72.91,1.93.62,2.52-.61,6.36-5.1,9.08-10.51,3.18-6.4,4.76-11.23,6.06-18.06.84-4.65,1.72-8.32,2.76-10.94,2.48-6.82,11.46-6.45,12.28.56.09.77-.44,4.25-1.31,8.81-1.39,6.85-4.43,23.09-5.01,26.79h-.02Z"/>
      <path class="st0" d="M112.99,87.92c-2.03,1.38-3.2,1.47-4.28.25-1.78-2.03-.08-5.6,4.92-10.58l2.25-2.13.58-3.69c.38-2.07,1.23-7.5,1.88-12.11,1.67-11.76,2.73-17.54,4.16-23.42,2.19-9.22,5.47-16.83,8.3-19.4,3.48-3.12,7.55-1.84,9.68,2.87,1.61,3.75,2.21,12.69,2.18,33.22,0,3.65-.02,6.81.03,7-.05.6.07.67,1.44.63,1.16-.09,2.14.66,2.43,1.88.32,1.3-.48,2.88-2.35,4.52-.82.69-1.43,1.43-1.5,1.55s-.1,2-.19,4.09c-.19,8.14-.77,12.23-2.12,13.55-1.52,1.46-3.64,1.28-4.81-.31-.83-.98-1.82-6.27-1.74-9.15-.02-1.28-.06-2.26-.15-2.23-.09.02-2.33,1.36-4.9,2.97-2.82,1.77-4.67,3.11-4.79,3.44-.05.21-.32,3.14-.69,6.48-.77,7.79-.98,8.92-1.73,10.29-.87,1.3-2.57,2.01-3.85,1.63-2.11-.57-2.64-1.92-2.8-6.23-.12-3.72-.31-6.14-.5-6.1-.09.02-.68.46-1.45.95v.03ZM126.29,59.9c-.9,6.83-.98,8.92-.65,8.65.16-.14,1.91-1.06,3.73-2.09,4.71-2.53,4.48-2.28,4.51-4.56-.08-1.95-.07-4.72.16-15.93.14-7.53.08-14.23-.2-17.82-.11-1.65-.14-3.42-.14-3.81-.06-1.07-.53-.56-1.66,2.08-2.54,5.36-2.95,7.33-4.77,24.55-.34,2.65-.74,6.69-.98,8.93Z"/>
      <path class="st0" d="M146.75,48.69c.03-.3.11-3.19.32-6.39.62-15.65,2.71-27.31,5.38-29.74,1.19-1.18,2.45-1.29,4.17-.33,1.46.73,1.6.89,1.92,2.2.2.84.29,5.26.25,9.91-.17,4.58-.17,8.63-.17,9.02.03.39.19.38.49-.02,3.26-4.45,13.29-21.6,13.06-22.14-.02-.09,1.25-2.58,2.92-5.45,2.8-5.12,2.87-5.24,4.26-5.58,1.12-.27,1.51-.27,2.56.36,3.5,2.21,2.51,7.48-3.77,20.17-3.95,8.07-9.45,17.11-15.12,25.01-1.29,1.6-2.23,3.01-2.2,3.1,0,0,4.4-.98,9.69-2.36,13.41-3.27,17.39-3.55,19.73-1.26,2.5,2.55,1.48,5.26-3.12,8.26-2.47,1.59-5.13,2.83-12.89,5.81-8.81,3.53-13.5,5.37-14.85,5.89l-1.23.6-.13,7.14c-.3,11.72-.37,12.23-1.01,13.27-.82,1.48-2.13,1.8-3.82.93-1.14-.61-1.41-.94-2.01-2.57-.55-1.45-2.38-10.18-2.78-13.83-.11-.86-.2-.84-1.18-.4-4.59,2.21-11.28,4.33-13.49,4.18-2.93-.27-5.52-2.01-6.53-4.53-1.56-3.96.2-6.46,7.43-10.79,1.89-1.15,4.27-2.72,5.18-3.44,2.41-1.87,6.83-6.4,6.97-7.03h-.03Z"/>
    </g>
  </g>
</svg>